<svg width="100" height="100" viewBox="0 0 100 100" fill="none" xmlns="http://www.w3.org/2000/svg">
<g clip-path="url(#clip0_8_10)">
<g clip-path="url(#clip1_8_10)">
<circle cx="50" cy="50" r="50" fill="#999696"/>
<path d="M44.3542 63.125C44.4236 58.125 44.9965 54.4792 46.0729 52.1875C47.1493 49.8958 49.1806 47.3958 52.1667 44.6875C55.0833 42.0486 57.3229 39.6007 58.8854 37.3438C60.4479 35.0868 61.2292 32.6736 61.2292 30.1042C61.2292 26.9792 60.1875 24.375 58.1042 22.2917C56.0208 20.2083 53.1042 19.1667 49.3542 19.1667C45.7431 19.1667 42.9653 20.191 41.0208 22.2396C39.0764 24.2882 37.6528 26.4236 36.75 28.6458L28 24.7917C29.5278 20.6944 32.1146 17.2049 35.7604 14.3229C39.4062 11.441 43.9375 10 49.3542 10C56.2986 10 61.6458 11.9271 65.3958 15.7812C69.1458 19.6354 71.0208 24.2708 71.0208 29.6875C71.0208 33.0208 70.309 36.0417 68.8854 38.75C67.4618 41.4583 65.1875 44.3056 62.0625 47.2917C58.6597 50.5556 56.6111 53.0556 55.9167 54.7917C55.2222 56.5278 54.8403 59.3056 54.7708 63.125H44.3542ZM49.3542 89.1667C47.3403 89.1667 45.6215 88.4549 44.1979 87.0313C42.7743 85.6076 42.0625 83.8889 42.0625 81.875C42.0625 79.8611 42.7743 78.1424 44.1979 76.7188C45.6215 75.2951 47.3403 74.5833 49.3542 74.5833C51.3681 74.5833 53.0868 75.2951 54.5104 76.7188C55.934 78.1424 56.6458 79.8611 56.6458 81.875C56.6458 83.8889 55.934 85.6076 54.5104 87.0313C53.0868 88.4549 51.3681 89.1667 49.3542 89.1667Z" fill="white"/>
</g>
</g>
<defs>
<clipPath id="clip0_8_10">
<rect width="100" height="100" fill="white"/>
</clipPath>
<clipPath id="clip1_8_10">
<rect width="100" height="100" fill="white"/>
</clipPath>
</defs>
</svg>
