<svg width="108" height="108" viewBox="0 0 108 108" fill="none" xmlns="http://www.w3.org/2000/svg">
<g clip-path="url(#clip0_1_2)" filter="url(#filter0_d_1_2)">
<circle cx="54" cy="50" r="50" fill="#3A89FF"/>
<g style="mix-blend-mode:screen">
<path d="M68.8636 44.6364V54.1818H37.9091V44.6364H68.8636ZM45.6477 97V39.6932C45.6477 36.1705 46.375 33.2386 47.8295 30.8977C49.3068 28.5568 51.2841 26.8068 53.7614 25.6477C56.2386 24.4886 58.9886 23.9091 62.0114 23.9091C64.1477 23.9091 66.0455 24.0795 67.7045 24.4205C69.3636 24.7614 70.5909 25.0682 71.3864 25.3409L68.9318 34.8864C68.4091 34.7273 67.75 34.5682 66.9545 34.4091C66.1591 34.2273 65.2727 34.1364 64.2955 34.1364C62 34.1364 60.375 34.6932 59.4205 35.8068C58.4886 36.8977 58.0227 38.4659 58.0227 40.5114V97H45.6477Z" fill="#FEFEFE"/>
</g>
</g>
<defs>
<filter id="filter0_d_1_2" x="0" y="0" width="108" height="108" filterUnits="userSpaceOnUse" color-interpolation-filters="sRGB">
<feFlood flood-opacity="0" result="BackgroundImageFix"/>
<feColorMatrix in="SourceAlpha" type="matrix" values="0 0 0 0 0 0 0 0 0 0 0 0 0 0 0 0 0 0 127 0" result="hardAlpha"/>
<feOffset dy="4"/>
<feGaussianBlur stdDeviation="2"/>
<feComposite in2="hardAlpha" operator="out"/>
<feColorMatrix type="matrix" values="0 0 0 0 0 0 0 0 0 0 0 0 0 0 0 0 0 0 0.25 0"/>
<feBlend mode="normal" in2="BackgroundImageFix" result="effect1_dropShadow_1_2"/>
<feBlend mode="normal" in="SourceGraphic" in2="effect1_dropShadow_1_2" result="shape"/>
</filter>
<clipPath id="clip0_1_2">
<rect width="100" height="100" fill="white" transform="translate(4)"/>
</clipPath>
</defs>
</svg>
