<svg width="100" height="100" viewBox="0 0 100 100" fill="none" xmlns="http://www.w3.org/2000/svg">
<g clip-path="url(#clip0_1_2)">
<circle cx="50" cy="50" r="50" fill="#3A89FF"/>
<g style="mix-blend-mode:screen">
<path d="M64.8636 44.6364V54.1818H33.9091V44.6364H64.8636ZM41.6477 97V39.6932C41.6477 36.1705 42.375 33.2386 43.8295 30.8977C45.3068 28.5568 47.2841 26.8068 49.7614 25.6477C52.2386 24.4886 54.9886 23.9091 58.0114 23.9091C60.1477 23.9091 62.0455 24.0795 63.7045 24.4205C65.3636 24.7614 66.5909 25.0682 67.3864 25.3409L64.9318 34.8864C64.4091 34.7273 63.75 34.5682 62.9545 34.4091C62.1591 34.2273 61.2727 34.1364 60.2955 34.1364C58 34.1364 56.375 34.6932 55.4205 35.8068C54.4886 36.8977 54.0227 38.4659 54.0227 40.5114V97H41.6477Z" fill="#FEFEFE"/>
</g>
</g>
<defs>
<clipPath id="clip0_1_2">
<rect width="100" height="100" fill="white"/>
</clipPath>
</defs>
</svg>
